G04 EAGLE Gerber RS-274X export*
G75*
%MOMM*%
%FSLAX34Y34*%
%LPD*%
%INTop Copper*%
%IPPOS*%
%AMOC8*
5,1,8,0,0,1.08239X$1,22.5*%
G01*
%ADD10C,1.068000*%
%ADD11C,1.218000*%
%ADD12C,1.508000*%
%ADD13P,1.539592X8X112.500000*%
%ADD14P,1.539592X8X202.500000*%
%ADD15P,1.539592X8X292.500000*%
%ADD16P,1.539592X8X22.500000*%
%ADD17C,1.981200*%
%ADD18P,1.415766X8X112.500000*%
%ADD19R,1.600000X0.550000*%
%ADD20R,0.550000X1.600000*%
%ADD21C,1.676400*%
%ADD22P,1.924489X8X22.500000*%
%ADD23C,0.190500*%
%ADD24C,0.203200*%
%ADD25C,0.685800*%
%ADD26R,5.080000X5.080000*%


D10*
X856860Y281350D02*
X867540Y281350D01*
X867540Y353650D02*
X856860Y353650D01*
D11*
X844290Y350050D02*
X832110Y350050D01*
X832110Y284950D02*
X844290Y284950D01*
D12*
X865100Y32940D02*
X865100Y17860D01*
X805100Y17860D02*
X805100Y32940D01*
X827560Y-21600D02*
X842640Y-21600D01*
D13*
X673100Y12700D03*
X673100Y165100D03*
D14*
X673100Y-50800D03*
X520700Y-50800D03*
D15*
X609600Y165100D03*
X609600Y12700D03*
D13*
X495300Y12700D03*
X495300Y165100D03*
D14*
X444500Y-50800D03*
X292100Y-50800D03*
D15*
X558800Y165100D03*
X558800Y12700D03*
D14*
X444500Y76200D03*
X292100Y76200D03*
D16*
X292100Y12700D03*
X444500Y12700D03*
D17*
X136906Y-25400D02*
X117094Y-25400D01*
X117094Y25400D02*
X136906Y25400D01*
X136906Y76200D02*
X117094Y76200D01*
X218694Y-25400D02*
X238506Y-25400D01*
X238506Y25400D02*
X218694Y25400D01*
X218694Y76200D02*
X238506Y76200D01*
D18*
X254000Y254000D03*
X279400Y254000D03*
X254000Y228600D03*
X279400Y228600D03*
X279400Y279400D03*
X254000Y279400D03*
D19*
X499000Y238700D03*
X499000Y246700D03*
X499000Y254700D03*
X499000Y262700D03*
X499000Y270700D03*
X499000Y278700D03*
X499000Y286700D03*
X499000Y294700D03*
D20*
X485200Y308500D03*
X477200Y308500D03*
X469200Y308500D03*
X461200Y308500D03*
X453200Y308500D03*
X445200Y308500D03*
X437200Y308500D03*
X429200Y308500D03*
D19*
X415400Y294700D03*
X415400Y286700D03*
X415400Y278700D03*
X415400Y270700D03*
X415400Y262700D03*
X415400Y254700D03*
X415400Y246700D03*
X415400Y238700D03*
D20*
X429200Y224900D03*
X437200Y224900D03*
X445200Y224900D03*
X453200Y224900D03*
X461200Y224900D03*
X469200Y224900D03*
X477200Y224900D03*
X485200Y224900D03*
D21*
X124500Y739200D03*
X149900Y739200D03*
X175300Y739200D03*
X200700Y739200D03*
X226100Y739200D03*
X251500Y739200D03*
X276900Y739200D03*
X302300Y739200D03*
X327700Y739200D03*
X353100Y739200D03*
X378500Y739200D03*
X403900Y739200D03*
X429300Y739200D03*
X454700Y739200D03*
X480100Y739200D03*
X505500Y739200D03*
D22*
X88900Y254000D03*
X139700Y254000D03*
X114300Y355600D03*
D23*
X548322Y326707D02*
X554038Y326707D01*
X548322Y326707D02*
X548322Y333693D01*
X554038Y333693D01*
X554038Y326707D01*
X554038Y328517D02*
X548322Y328517D01*
X548322Y330327D02*
X554038Y330327D01*
X554038Y332137D02*
X548322Y332137D01*
X563562Y326707D02*
X569278Y326707D01*
X563562Y326707D02*
X563562Y333693D01*
X569278Y333693D01*
X569278Y326707D01*
X569278Y328517D02*
X563562Y328517D01*
X563562Y330327D02*
X569278Y330327D01*
X569278Y332137D02*
X563562Y332137D01*
D24*
X317500Y241300D02*
X279400Y203200D01*
X266700Y203200D01*
X254000Y215900D01*
X254000Y228600D01*
D25*
X368300Y292100D03*
D24*
X355600Y279400D01*
X355600Y254000D01*
X368300Y241300D01*
D25*
X330200Y241300D03*
D24*
X317500Y241300D01*
D25*
X368300Y241300D03*
D24*
X397700Y270700D02*
X415400Y270700D01*
X397700Y270700D02*
X393700Y266700D01*
X368300Y241300D01*
X401000Y286700D02*
X415400Y286700D01*
X401000Y286700D02*
X393700Y279400D01*
X393700Y266700D01*
X368300Y241300D02*
X368300Y215900D01*
X406400Y177800D01*
X444500Y177800D01*
X499000Y262700D02*
X575500Y262700D01*
X584200Y254000D01*
D25*
X584200Y254000D03*
X444500Y177800D03*
D24*
X114300Y228600D02*
X88900Y254000D01*
X114300Y228600D02*
X254000Y228600D01*
X480000Y739200D02*
X480100Y739200D01*
X161330Y750630D02*
X149900Y739200D01*
X468570Y750630D02*
X480000Y739200D01*
X468570Y750630D02*
X161330Y750630D01*
X228600Y76200D02*
X292100Y76200D01*
X292100Y88900D01*
X317500Y114300D01*
X444500Y114300D01*
X457200Y101600D01*
X457200Y12700D02*
X482600Y-12700D01*
X533400Y-12700D02*
X558800Y12700D01*
X457200Y12700D02*
X457200Y101600D01*
X482600Y-12700D02*
X533400Y-12700D01*
X558800Y165100D02*
X495300Y165100D01*
X444500Y76200D02*
X444500Y12700D01*
X292100Y12700D02*
X292100Y-50800D01*
X495300Y-50800D02*
X533400Y-88900D01*
X647700Y-88900D01*
X673100Y-63500D01*
X495300Y-50800D02*
X444500Y-50800D01*
X673100Y-50800D02*
X673100Y-63500D01*
X865100Y-23900D02*
X865100Y25400D01*
X865100Y-23900D02*
X838200Y-50800D01*
X673100Y-50800D01*
D26*
X749300Y-101600D03*
D24*
X698500Y-50800D02*
X673100Y-50800D01*
X698500Y-50800D02*
X749300Y-101600D01*
X609600Y12700D02*
X571500Y-25400D01*
X546100Y-25400D01*
X520700Y-50800D01*
X609600Y165100D02*
X673100Y165100D01*
D25*
X330200Y228600D03*
X393700Y241300D03*
D24*
X399100Y246700D01*
X415400Y246700D01*
X330200Y228600D02*
X254000Y152400D01*
X241300Y-114300D02*
X114300Y-114300D01*
X241300Y-114300D02*
X254000Y-101600D01*
X254000Y12700D01*
X241300Y25400D01*
X228600Y25400D01*
X254000Y152400D02*
X101600Y152400D01*
X63500Y114300D01*
X63500Y-63500D01*
X114300Y-114300D01*
X279400Y228600D02*
X292100Y228600D01*
X317500Y254000D01*
X330200Y254000D01*
D25*
X381000Y292100D03*
D24*
X381000Y301841D01*
X406505Y327346D02*
X419100Y327346D01*
X406505Y327346D02*
X381000Y301841D01*
X429200Y308500D02*
X429200Y317246D01*
X419100Y327346D01*
D25*
X330200Y254000D03*
D24*
X254000Y254000D02*
X241300Y254000D01*
X228600Y266700D01*
X228600Y292100D01*
X371890Y311178D02*
X392122Y331410D01*
X371890Y311178D02*
X247678Y311178D01*
X437200Y308500D02*
X437200Y324800D01*
X247678Y311178D02*
X228600Y292100D01*
X392122Y331410D02*
X430590Y331410D01*
X437200Y324800D01*
X461200Y224900D02*
X461200Y169100D01*
X444500Y152400D01*
X393700Y152400D01*
X351536Y194564D01*
X342900Y203200D01*
X342900Y279400D01*
X330200Y292100D01*
D25*
X330200Y292100D03*
D24*
X292100Y254000D02*
X279400Y254000D01*
X292100Y254000D02*
X304800Y266700D01*
X368300Y266700D02*
X396300Y294700D01*
X415400Y294700D01*
D25*
X330200Y266700D03*
D24*
X304800Y266700D01*
D25*
X368300Y266700D03*
X330200Y203200D03*
X393700Y215900D03*
D24*
X402400Y262700D02*
X415400Y262700D01*
X381000Y241300D02*
X381000Y228600D01*
X393700Y215900D01*
X381000Y241300D02*
X402400Y262700D01*
X393700Y215900D02*
X419100Y190500D01*
X444500Y190500D01*
X330200Y203200D02*
X254000Y127000D01*
X101600Y127000D01*
X88900Y114300D01*
X88900Y88900D01*
X101600Y76200D01*
D25*
X571500Y279400D03*
D24*
X562800Y270700D02*
X499000Y270700D01*
X562800Y270700D02*
X571500Y279400D01*
X609600Y241300D01*
D25*
X444500Y190500D03*
D24*
X822725Y365525D02*
X838200Y350050D01*
X862200Y278000D02*
X850900Y266700D01*
X862200Y278000D02*
X862200Y281350D01*
X127000Y76200D02*
X101600Y76200D01*
D26*
X838200Y-101600D03*
D24*
X114300Y355600D02*
X114300Y729000D01*
X124450Y739150D01*
X124500Y739200D01*
X505400Y739200D02*
X505500Y739200D01*
X482600Y762000D02*
X139700Y762000D01*
X124450Y746750D01*
X124450Y739150D01*
X482600Y762000D02*
X505400Y739200D01*
X850900Y266700D02*
X825500Y241300D01*
X838200Y279400D02*
X838200Y284950D01*
X838200Y279400D02*
X850900Y266700D01*
X825500Y241300D02*
X609600Y241300D01*
X800100Y266700D02*
X825500Y241300D01*
X800100Y266700D02*
X800100Y355600D01*
X810025Y365525D01*
X822725Y365525D01*
X571500Y279400D02*
X566420Y284480D01*
X566420Y330200D01*
X266700Y292100D02*
X254000Y279400D01*
X266700Y292100D02*
X317500Y292100D01*
X336677Y272923D01*
X336677Y209677D02*
X330200Y203200D01*
X336677Y209677D02*
X336677Y272923D01*
D25*
X330200Y215900D03*
X393700Y228600D03*
D24*
X403800Y238700D01*
X415400Y238700D01*
X330200Y215900D02*
X254000Y139700D01*
X101600Y139700D01*
X76200Y114300D01*
X76200Y50800D01*
X101600Y25400D01*
X127000Y25400D01*
X175300Y289600D02*
X175300Y739200D01*
X175300Y289600D02*
X139700Y254000D01*
X469200Y224900D02*
X469200Y164400D01*
X444500Y139700D01*
X381000Y139700D01*
X330200Y190500D01*
D25*
X330200Y190500D03*
X215900Y241300D03*
D24*
X200700Y256500D01*
X200700Y739200D01*
X477200Y224900D02*
X477200Y159700D01*
X444500Y127000D01*
X381000Y127000D01*
X330200Y177800D01*
D25*
X330200Y177800D03*
X215900Y304800D03*
D24*
X251500Y340400D02*
X251500Y739200D01*
X251500Y340400D02*
X215900Y304800D01*
X499000Y246700D02*
X513400Y246700D01*
X520700Y254000D01*
D25*
X520700Y254000D03*
D24*
X378500Y408900D02*
X378500Y739200D01*
X378500Y408900D02*
X419100Y368300D01*
D25*
X419100Y368300D03*
D24*
X485200Y320100D02*
X485200Y308500D01*
X485200Y320100D02*
X495300Y330200D01*
D25*
X495300Y330200D03*
D24*
X403900Y408900D02*
X403900Y739200D01*
X403900Y408900D02*
X431800Y381000D01*
D25*
X431800Y381000D03*
X495300Y355600D03*
D24*
X495300Y381000D01*
D25*
X495300Y381000D03*
D24*
X477200Y324800D02*
X477200Y308500D01*
X477200Y324800D02*
X482600Y330200D01*
D25*
X482600Y330200D03*
D24*
X429300Y408900D02*
X429300Y739200D01*
X429300Y408900D02*
X444500Y393700D01*
D25*
X444500Y393700D03*
X482600Y355600D03*
D24*
X482600Y393700D01*
D25*
X482600Y393700D03*
X469900Y330200D03*
D24*
X469900Y724000D02*
X454700Y739200D01*
X469900Y724000D02*
X469900Y355600D01*
D25*
X469900Y355600D03*
D24*
X469900Y330200D02*
X469900Y309200D01*
X469200Y308500D01*
X461200Y308500D02*
X461200Y321500D01*
X546100Y330200D02*
X551180Y330200D01*
X546100Y330200D02*
X533400Y342900D01*
X482600Y342900D01*
X461200Y334200D02*
X461200Y321500D01*
X461200Y334200D02*
X469900Y342900D01*
X482600Y342900D01*
M02*
