G04 EAGLE Gerber RS-274X export*
G75*
%MOMM*%
%FSLAX34Y34*%
%LPD*%
%INSilkscreen Bottom*%
%IPPOS*%
%AMOC8*
5,1,8,0,0,1.08239X$1,22.5*%
G01*
%ADD10C,0.200000*%
%ADD11C,0.127000*%
%ADD12C,0.050800*%


D10*
X875070Y304500D02*
X875072Y304563D01*
X875078Y304625D01*
X875088Y304687D01*
X875101Y304749D01*
X875119Y304809D01*
X875140Y304868D01*
X875165Y304926D01*
X875194Y304982D01*
X875226Y305036D01*
X875261Y305088D01*
X875299Y305137D01*
X875341Y305185D01*
X875385Y305229D01*
X875433Y305271D01*
X875482Y305309D01*
X875534Y305344D01*
X875588Y305376D01*
X875644Y305405D01*
X875702Y305430D01*
X875761Y305451D01*
X875821Y305469D01*
X875883Y305482D01*
X875945Y305492D01*
X876007Y305498D01*
X876070Y305500D01*
X876133Y305498D01*
X876195Y305492D01*
X876257Y305482D01*
X876319Y305469D01*
X876379Y305451D01*
X876438Y305430D01*
X876496Y305405D01*
X876552Y305376D01*
X876606Y305344D01*
X876658Y305309D01*
X876707Y305271D01*
X876755Y305229D01*
X876799Y305185D01*
X876841Y305137D01*
X876879Y305088D01*
X876914Y305036D01*
X876946Y304982D01*
X876975Y304926D01*
X877000Y304868D01*
X877021Y304809D01*
X877039Y304749D01*
X877052Y304687D01*
X877062Y304625D01*
X877068Y304563D01*
X877070Y304500D01*
X877068Y304437D01*
X877062Y304375D01*
X877052Y304313D01*
X877039Y304251D01*
X877021Y304191D01*
X877000Y304132D01*
X876975Y304074D01*
X876946Y304018D01*
X876914Y303964D01*
X876879Y303912D01*
X876841Y303863D01*
X876799Y303815D01*
X876755Y303771D01*
X876707Y303729D01*
X876658Y303691D01*
X876606Y303656D01*
X876552Y303624D01*
X876496Y303595D01*
X876438Y303570D01*
X876379Y303549D01*
X876319Y303531D01*
X876257Y303518D01*
X876195Y303508D01*
X876133Y303502D01*
X876070Y303500D01*
X876007Y303502D01*
X875945Y303508D01*
X875883Y303518D01*
X875821Y303531D01*
X875761Y303549D01*
X875702Y303570D01*
X875644Y303595D01*
X875588Y303624D01*
X875534Y303656D01*
X875482Y303691D01*
X875433Y303729D01*
X875385Y303771D01*
X875341Y303815D01*
X875299Y303863D01*
X875261Y303912D01*
X875226Y303964D01*
X875194Y304018D01*
X875165Y304074D01*
X875140Y304132D01*
X875119Y304191D01*
X875101Y304251D01*
X875088Y304313D01*
X875078Y304375D01*
X875072Y304437D01*
X875070Y304500D01*
D11*
X823700Y280000D02*
X823700Y355000D01*
X866700Y299500D02*
X866700Y290500D01*
X866700Y335500D02*
X866700Y344500D01*
D12*
X879851Y274455D02*
X884216Y274455D01*
X879851Y274455D02*
X879781Y274453D01*
X879711Y274447D01*
X879642Y274437D01*
X879574Y274424D01*
X879506Y274406D01*
X879439Y274385D01*
X879374Y274360D01*
X879310Y274332D01*
X879248Y274299D01*
X879188Y274264D01*
X879129Y274225D01*
X879074Y274183D01*
X879020Y274138D01*
X878969Y274090D01*
X878921Y274039D01*
X878876Y273985D01*
X878834Y273930D01*
X878795Y273871D01*
X878760Y273811D01*
X878727Y273749D01*
X878699Y273685D01*
X878674Y273620D01*
X878653Y273553D01*
X878635Y273485D01*
X878622Y273417D01*
X878612Y273348D01*
X878606Y273278D01*
X878604Y273208D01*
X878605Y273208D02*
X878605Y272585D01*
X882969Y277006D02*
X884216Y278564D01*
X878605Y278564D01*
X878605Y277006D02*
X878605Y280123D01*
M02*
