G04 EAGLE Gerber RS-274X export*
G75*
%MOMM*%
%FSLAX34Y34*%
%LPD*%
%INSolderpaste Top*%
%IPPOS*%
%AMOC8*
5,1,8,0,0,1.08239X$1,22.5*%
G01*
%ADD10R,1.600000X0.550000*%
%ADD11R,0.550000X1.600000*%
%ADD12C,0.190500*%


D10*
X499000Y238700D03*
X499000Y246700D03*
X499000Y254700D03*
X499000Y262700D03*
X499000Y270700D03*
X499000Y278700D03*
X499000Y286700D03*
X499000Y294700D03*
D11*
X485200Y308500D03*
X477200Y308500D03*
X469200Y308500D03*
X461200Y308500D03*
X453200Y308500D03*
X445200Y308500D03*
X437200Y308500D03*
X429200Y308500D03*
D10*
X415400Y294700D03*
X415400Y286700D03*
X415400Y278700D03*
X415400Y270700D03*
X415400Y262700D03*
X415400Y254700D03*
X415400Y246700D03*
X415400Y238700D03*
D11*
X429200Y224900D03*
X437200Y224900D03*
X445200Y224900D03*
X453200Y224900D03*
X461200Y224900D03*
X469200Y224900D03*
X477200Y224900D03*
X485200Y224900D03*
D12*
X548322Y326707D02*
X554038Y326707D01*
X548322Y326707D02*
X548322Y333693D01*
X554038Y333693D01*
X554038Y326707D01*
X554038Y328517D02*
X548322Y328517D01*
X548322Y330327D02*
X554038Y330327D01*
X554038Y332137D02*
X548322Y332137D01*
X563562Y326707D02*
X569278Y326707D01*
X563562Y326707D02*
X563562Y333693D01*
X569278Y333693D01*
X569278Y326707D01*
X569278Y328517D02*
X563562Y328517D01*
X563562Y330327D02*
X569278Y330327D01*
X569278Y332137D02*
X563562Y332137D01*
M02*
